<svg xmlns="http://www.w3.org/2000/svg" viewBox="0 0 100 1000">
  <rect width="100" height="1000" fill="#305"/>
  <circle cx="50" r="50" fill="#305"/>
  <g fill="#3a015d">
    <circle cy="50" r="50"/>
    <circle cx="100" cy="50" r="50"/>
  </g>
  <circle cx="50" cy="100" r="50" fill="#410365"/>
  <g fill="#49056d">
    <circle cy="150" r="50"/>
    <circle cx="100" cy="150" r="50"/>
  </g>
  <circle cx="50" cy="200" r="50" fill="#510775"/>
  <g fill="#58097d">
    <circle cy="250" r="50"/>
    <circle cx="100" cy="250" r="50"/>
  </g>
  <circle cx="50" cy="300" r="50" fill="#600c86"/>
  <g fill="#690f8e">
    <circle cy="350" r="50"/>
    <circle cx="100" cy="350" r="50"/>
  </g>
  <circle cx="50" cy="400" r="50" fill="#711196"/>
  <g fill="#7a149e">
    <circle cy="450" r="50"/>
    <circle cx="100" cy="450" r="50"/>
  </g>
  <circle cx="50" cy="500" r="50" fill="#8216a7"/>
  <g fill="#8b18af">
    <circle cy="550" r="50"/>
    <circle cx="100" cy="550" r="50"/>
  </g>
  <circle cx="50" cy="600" r="50" fill="#941bb8"/>
  <g fill="#9d1dc0">
    <circle cy="650" r="50"/>
    <circle cx="100" cy="650" r="50"/>
  </g>
  <circle cx="50" cy="700" r="50" fill="#a61fc8"/>
  <g fill="#b021d1">
    <circle cy="750" r="50"/>
    <circle cx="100" cy="750" r="50"/>
  </g>
  <circle cx="50" cy="800" r="50" fill="#b923d9"/>
  <g fill="#c325e2">
    <circle cy="850" r="50"/>
    <circle cx="100" cy="850" r="50"/>
  </g>
  <circle cx="50" cy="900" r="50" fill="#cd27ea"/>
  <g fill="#d729f3">
    <circle cy="950" r="50"/>
    <circle cx="100" cy="950" r="50"/>
  </g>
  <circle cx="50" cy="1000" r="50" fill="#e12bfb"/>
</svg>