<svg xmlns="http://www.w3.org/2000/svg" width="400" height="400" viewBox="0 0 800 800">
  <rect width="800" height="800" fill="#615FFF"/>
  <g fill="none" stroke="#7C86FF">
    <path d="m769 229 268 32M927 880 731 737l-211-77-211-122-269 61 255 165-168 116-87-281-237-106 299-111-133-153L127 80-69-63"/>
    <path d="m-31 229 268 32 153 121 213 111-294 45-207-156m268 523-75-141"/>
    <path d="m520 660 58 182 153-105 109-138-237-106-83 167-225 104 14-226 81-156 149-113 230-40L578 42l-208 63-75-141L127 80l110 181-135 121-62 217-109 138 196 143"/>
    <path d="m520-140 59 183L731-63M603 493l-64-224-302-8 133-156m532 277L539 269M390 382H102"/>
    <path d="m-222 42 349 38 243 25 169 164 39-227 349 38-158 149 133 153-299 111 128 244M295-36l283 78m0 800-283-78M40-201l87 281m-25 302-363-113"/>
  </g>
  <g fill="#A3B3FF">
    <circle cx="769" cy="229" r="5"/>
    <circle cx="539" cy="269" r="5"/>
    <circle cx="603" cy="493" r="5"/>
    <circle cx="731" cy="737" r="5"/>
    <circle cx="520" cy="660" r="5"/>
    <circle cx="309" cy="538" r="5"/>
    <circle cx="295" cy="764" r="5"/>
    <circle cx="40" cy="599" r="5"/>
    <circle cx="102" cy="382" r="5"/>
    <circle cx="127" cy="80" r="5"/>
    <circle cx="370" cy="105" r="5"/>
    <circle cx="578" cy="42" r="5"/>
    <circle cx="237" cy="261" r="5"/>
    <circle cx="390" cy="382" r="5"/>
  </g>
</svg>