<svg xmlns="http://www.w3.org/2000/svg" viewBox="0 0 1600 900">
  <rect width="1600" height="900" fill="#00bba7"/>
  <polygon fill="#ed0040" points="957 450 539 900 1396 900"/>
  <polygon fill="#a50036" points="957 450 872.9 900 1396 900"/>
  <polygon fill="#f70061" points="-60 900 398 662 816 900"/>
  <polygon fill="#a90049" points="337 900 398 662 816 900"/>
  <polygon fill="#f80086" points="1203 546 1552 900 876 900"/>
  <polygon fill="#a9005f" points="1203 546 1552 900 1162 900"/>
  <polygon fill="#ef00ae" points="641 695 886 900 367 900"/>
  <polygon fill="#a10079" points="587 900 641 695 886 900"/>
  <polygon fill="#d816d8" points="1710 900 1401 632 1096 900"/>
  <polygon fill="#8f0094" points="1710 900 1401 632 1365 900"/>
  <polygon fill="#ad46ff" points="1210 900 971 687 725 900"/>
  <polygon fill="#6e10b0" points="943 900 1210 900 971 687"/>
</svg>