<svg xmlns="http://www.w3.org/2000/svg" viewBox="0 0 1000 1000">
  <path fill="#ff9" d="M0 0h1000v1000H0z"/>
  <g fill="#ffd573">
    <path d="M1000-50H0l500 500zM550 500l500 500V0zM-50 0v1000l500-500zM0 1050h1000L500 550z"/>
  </g>
  <g fill="#ffaa4d">
    <path d="M1000-133.3H0l500 500zM633.3 500l500 500V0zM-133.3 0v1000l500-500zM0 1133.3h1000l-500-500z"/>
  </g>
  <g fill="#ff8026">
    <path d="M1000-216.7H0l500 500zM716.7 500l500 500V0zM-216.7 0v1000l500-500zM0 1216.7h1000l-500-500z"/>
  </g>
  <g fill="#f50">
    <path d="M1000-300H0l500 500zM800 500l500 500V0zM-300 0v1000l500-500zM0 1300h1000L500 800z"/>
  </g>
  <g fill-opacity=".5">
    <path fill="#fe0" d="M0 707.1V292.9L292.9 0h414.2L1000 292.9v414.2L707.1 1000H292.9z"/>
    <g fill="#ffc800">
      <path d="m464.6-242.5-707.1 707.1h707.1zM535.4 464.6h707.1L535.4-242.5zM-242.5 535.4l707.1 707.1V535.4zM535.4 1242.5l707.1-707.1H535.4z"/>
    </g>
    <g fill="#ffa200">
      <path d="m405.7-301.4-707.1 707.1h707.1zM594.3 405.7h707.1L594.3-301.4zM-301.4 594.3l707.1 707.1V594.3zM594.3 1301.4l707.1-707.1H594.3z"/>
    </g>
    <g fill="#ff7b00">
      <path d="m346.8-360.3-707.1 707.1h707.1zM653.2 346.8h707.1L653.2-360.3zM-360.3 653.2l707.1 707.1V653.2zM653.2 1360.3l707.1-707.1H653.2z"/>
    </g>
    <g fill="#f50">
      <path d="m287.9-419.2-707.1 707.1h707.1zM712.1 287.9h707.1L712.1-419.2zM-419.2 712.1l707.1 707.1V712.1zM712.1 1419.2l707.1-707.1H712.1z"/>
    </g>
  </g>
</svg>