<svg xmlns="http://www.w3.org/2000/svg" width="2000" height="1500" fill="none" viewBox="0 0 2000 1500">
  <path fill="#0296c7" d="M0 1500V0h2000v1500z"/>
  <defs>
    <g id="a" fill="currentColor">
      <path d="M1618 1387c-1 54 15 98 22 113h105c-13-95 20-113 54-204 28-73 166-161 231-196v-81c-14 15-48 36-70 0-23-36 37-100 70-127V643c-37 3-111 18-113 55-3 47 39 311-93 420-133 109-205 202-206 269M923 134c10-42-6-107-14-134h370c41 114-81 166-117 181-37 14-70 47 36 47 107 0 204-94 215-140 10-36-3-74-11-88h93c82 259-281 293-360 303-78 11-100 41-108 92-7 50 56 158-10 161-67 3-61-74-84-120-23-45-86-63-94-120-9-57 73-129 84-182"/>
      <path fill-rule="evenodd" d="M1692 0c9 25 18 88-22 142a621 621 0 0 1-292 223c-163 64-180 123-163 188 16 66 91 76 141 70l40-8c30-6 58-12 105-4 66 12 169 144 169 224s-59 98-161 114c-102 15-227 64-266 143-18 36-24 67-28 93-7 33-35 115-58 127-41 21-25-39-167-70s-409-80-489 28-68 170-50 230h153c-27-4-62-23 21-67 51-26 91-56 124-80 34-25 60-44 82-48 42-7 75 23 56 84-16 49-62 94-84 111h553c-10-23-25-87 0-158a417 417 0 0 1 285-278c110-40 229-84 215-222-9-90-48-138-83-181-31-39-58-73-58-129 1-117 234-92 315-79V173c-65 42-208 133-259 160-63 32-101 10-101-27 0-22 27-44 54-65 19-15 38-31 47-46l2-3c25-40 86-138 19-192zm-197 512c-12 6-44 15-79 0l-19-8c-33-12-52-20-41-51 8-20 37-29 66-39 25-8 50-17 62-31 25-32 50-54 59-21 9 34-13 123-48 150" clip-rule="evenodd"/>
      <path fill-rule="evenodd" d="M2 1500c12-4 42-24 60-75 24-64 60-161 186-223 126-63 239-156 222-246l-4-20c-15-73-17-86 4-95 9-4 13 3 19 13 9 14 20 33 52 33 26 0 50-10 76-20 32-12 67-26 111-26 38 0 66 28 95 56 33 32 66 65 115 59a524 524 0 0 0 330-167c74-77 96-100 154-86 63 15 48 86 38 128s-93 74-159 90c-67 15-148 71-194 128s-133 130-237 130c-48 0-87-22-126-46-46-27-93-55-160-51-124 8-283 121-268 418zm721-464c-11-18-15-54 57-52 41 1 65 13 84 22 22 11 38 20 68 5 58-27 94-41 110-27 16 13-80 114-157 118-78 5-157-54-162-66" clip-rule="evenodd"/>
      <path fill-rule="evenodd" d="M240 0H0v490l34 26c83 42 83 149 83 224l1 35c1 43 33 79 58 107 16 19 29 34 29 45 0 29-16 45-76 74-47 24-104 27-127 26l-2 341c54-24 60-46 76-125 15-78 56-104 149-114 94-11 179-39 179-116 0-50-38-99-69-140q-27-33-39-58c-19-46-25-145 89-145 63 0 102 33 136 62 26 23 50 43 81 43 30 0 47-3 63-7 22-6 43-10 94-4 47 5 85 25 118 42 29 15 55 29 80 29 54 0 72-6 117-28 44-23 105-95 53-117-27-12-32-11-47-7-14 3-36 8-88 7-78-2-97-60-115-114q-9-35-25-60c-15-23-36-33-56-43-31-15-58-29-58-78 0-42 15-74 30-105 14-30 29-60 29-98 0-63-25-154-38-192H583c111 211-22 311-51 332-30 20-33 39 0 81q13 16 34 36c39 39 83 84 48 109-23 16-44-5-69-29-25-25-54-54-94-51-63 4-102-18-114-29-64-58-59-126-54-198l3-59c0-75-31-159-46-192m564 668c15-35-50-73-68-83-94 0-89 36-71 70 17 34 123 48 139 13M437 529c4 12 18 35 47 36 36 2 9-49-26-52-28-3-26 10-21 16" clip-rule="evenodd"/>
    </g>
  </defs>
  <use color="#0077b6" href="#a"/>
  <use x="-30" color="#04b4d8" href="#a"/>
</svg>