<svg xmlns="http://www.w3.org/2000/svg" viewBox="0 0 2000 1500">
  <rect fill="#27002b" width="100%" height="100%"/>
  <defs>
    <ellipse id="a" fill="none" stroke-width="148" rx="600" ry="450"/>
  </defs>
  <g style="transform-origin:center" transform="rotate(13 -3843 4083)">
    <use stroke="#27002b" href="#a" transform="rotate(-180)scale(.033)"/>
    <use stroke="#29012c" href="#a" transform="rotate(-170)scale(.041)"/>
    <use stroke="#2c022d" href="#a" transform="rotate(-160)scale(.051)"/>
    <use stroke="#30022f" href="#a" transform="rotate(-150)scale(.064)"/>
    <use stroke="#350332" href="#a" transform="rotate(-140)scale(.08)"/>
    <use stroke="#3a0334" href="#a" transform="rotate(-130)scale(.1)"/>
    <use stroke="#400436" href="#a" transform="rotate(-120)scale(.12)"/>
    <use stroke="#450537" href="#a" transform="rotate(-110)scale(.15)"/>
    <use stroke="#4a0539" href="#a" transform="rotate(-100)scale(.18)"/>
    <use stroke="#4f063b" href="#a" transform="rotate(-90)scale(.22)"/>
    <use stroke="#54073c" href="#a" transform="rotate(-80)scale(.27)"/>
    <use stroke="#5a093e" href="#a" transform="rotate(-70)scale(.33)"/>
    <use stroke="#5f0a3f" href="#a" transform="rotate(-60)scale(.4)"/>
    <use stroke="#6b0d41" href="#a" transform="rotate(-50)scale(.5)"/>
    <use stroke="#771143" href="#a" transform="rotate(-40)scale(.6)"/>
    <use stroke="#831645" href="#a" transform="rotate(-30)scale(.7)"/>
    <use stroke="#8f1c46" href="#a" transform="rotate(-20)scale(.8)"/>
    <use stroke="#9a2246" href="#a" transform="rotate(-10)scale(.9)"/>
    <use stroke="#a52846" href="#a"/>
    <use stroke="#b03045" href="#a" transform="rotate(10)scale(1.1)"/>
    <use stroke="#ba3844" href="#a" transform="rotate(20)scale(1.2)"/>
    <use stroke="#c44042" href="#a" transform="rotate(30)scale(1.3)"/>
    <use stroke="#cd4940" href="#a" transform="rotate(40)scale(1.4)"/>
    <use stroke="#d6533d" href="#a" transform="rotate(50)scale(1.5)"/>
    <use stroke="#dd5d3a" href="#a" transform="rotate(60)scale(1.6)"/>
    <use stroke="#e56736" href="#a" transform="rotate(70)scale(1.7)"/>
    <use stroke="#eb7232" href="#a" transform="rotate(80)scale(1.8)"/>
    <use stroke="#f17d2e" href="#a" transform="rotate(90)scale(1.9)"/>
    <use stroke="#f58829" href="#a" transform="rotate(100)scale(2)"/>
    <use stroke="#f99323" href="#a" transform="rotate(110)scale(2.1)"/>
    <use stroke="#fc9f1c" href="#a" transform="rotate(120)scale(2.2)"/>
    <use stroke="#feab15" href="#a" transform="rotate(130)scale(2.3)"/>
    <use stroke="#ffb70d" href="#a" transform="rotate(140)scale(2.4)"/>
    <use stroke="#ffc404" href="#a" transform="rotate(150)scale(2.5)"/>
    <use stroke="#ffd000" href="#a" transform="rotate(160)scale(2.6)"/>
  </g>
</svg>