<svg xmlns="http://www.w3.org/2000/svg" width="400" height="400" viewBox="0 0 200 200">
  <rect width="200" height="200" fill="#00C951"/>
  <g fill="none" stroke="#3C6300" stroke-opacity=".2">
    <rect width="75" height="75" x="-40" y="40"/>
    <rect width="65" height="65" x="-35" y="45"/>
    <rect width="55" height="55" x="-30" y="50"/>
    <rect width="45" height="45" x="-25" y="55"/>
    <rect width="35" height="35" x="-20" y="60"/>
    <rect width="25" height="25" x="-15" y="65"/>
    <rect width="15" height="15" x="-10" y="70"/>
    <rect width="5" height="5" x="-5" y="75"/>
    <rect width="35" height="35"/>
    <rect width="25" height="25" x="5" y="5"/>
    <rect width="15" height="15" x="10" y="10"/>
    <rect width="5" height="5" x="15" y="15"/>
    <rect width="75" height="75" x="40"/>
    <rect width="65" height="65" x="45" y="5"/>
    <rect width="55" height="55" x="50" y="10"/>
    <rect width="45" height="45" x="55" y="15"/>
    <rect width="35" height="35" x="60" y="20"/>
    <rect width="25" height="25" x="65" y="25"/>
    <rect width="15" height="15" x="70" y="30"/>
    <rect width="5" height="5" x="75" y="35"/>
    <rect width="35" height="35" x="40" y="80"/>
    <rect width="25" height="25" x="45" y="85"/>
    <rect width="15" height="15" x="50" y="90"/>
    <rect width="5" height="5" x="55" y="95"/>
    <rect width="75" height="75" x="120" y="-40"/>
    <rect width="65" height="65" x="125" y="-35"/>
    <rect width="55" height="55" x="130" y="-30"/>
    <rect width="45" height="45" x="135" y="-25"/>
    <rect width="35" height="35" x="140" y="-20"/>
    <rect width="25" height="25" x="145" y="-15"/>
    <rect width="15" height="15" x="150" y="-10"/>
    <rect width="5" height="5" x="155" y="-5"/>
    <rect width="35" height="35" x="120" y="40"/>
    <rect width="25" height="25" x="125" y="45"/>
    <rect width="15" height="15" x="130" y="50"/>
    <rect width="5" height="5" x="135" y="55"/>
    <rect width="75" height="75" y="120"/>
    <rect width="65" height="65" x="5" y="125"/>
    <rect width="55" height="55" x="10" y="130"/>
    <rect width="45" height="45" x="15" y="135"/>
    <rect width="35" height="35" x="20" y="140"/>
    <rect width="25" height="25" x="25" y="145"/>
    <rect width="15" height="15" x="30" y="150"/>
    <rect width="5" height="5" x="35" y="155"/>
    <rect width="75" height="75" x="200" y="120"/>
    <rect width="75" height="75" x="40" y="200"/>
    <rect width="75" height="75" x="80" y="80"/>
    <rect width="65" height="65" x="85" y="85"/>
    <rect width="55" height="55" x="90" y="90"/>
    <rect width="45" height="45" x="95" y="95"/>
    <rect width="35" height="35" x="100" y="100"/>
    <rect width="25" height="25" x="105" y="105"/>
    <rect width="15" height="15" x="110" y="110"/>
    <rect width="5" height="5" x="115" y="115"/>
    <rect width="35" height="35" x="80" y="160"/>
    <rect width="25" height="25" x="85" y="165"/>
    <rect width="15" height="15" x="90" y="170"/>
    <rect width="5" height="5" x="95" y="175"/>
    <rect width="75" height="75" x="120" y="160"/>
    <rect width="65" height="65" x="125" y="165"/>
    <rect width="55" height="55" x="130" y="170"/>
    <rect width="45" height="45" x="135" y="175"/>
    <rect width="35" height="35" x="140" y="180"/>
    <rect width="25" height="25" x="145" y="185"/>
    <rect width="15" height="15" x="150" y="190"/>
    <rect width="5" height="5" x="155" y="195"/>
    <rect width="75" height="75" x="160" y="40"/>
    <rect width="65" height="65" x="165" y="45"/>
    <rect width="55" height="55" x="170" y="50"/>
    <rect width="45" height="45" x="175" y="55"/>
    <rect width="35" height="35" x="180" y="60"/>
    <rect width="25" height="25" x="185" y="65"/>
    <rect width="15" height="15" x="190" y="70"/>
    <rect width="5" height="5" x="195" y="75"/>
    <rect width="35" height="35" x="160" y="120"/>
    <rect width="25" height="25" x="165" y="125"/>
    <rect width="15" height="15" x="170" y="130"/>
    <rect width="5" height="5" x="175" y="135"/>
    <rect width="35" height="35" x="200" y="200"/>
    <rect width="35" height="35" x="200"/>
    <rect width="35" height="35" y="200"/>
  </g>
</svg>