<svg xmlns="http://www.w3.org/2000/svg" width="45" height="45" fill="#4E7DA9">
  <path d="M8.36 9.153a1.503 1.503 0 1 0 2.28 1.96l-1.14-.98-1.14-.98Zm1.14.98 1.14.98a17.5 17.5 0 0 1 8.84-5.54l-.38-1.45-.38-1.45a20.5 20.5 0 0 0-10.36 6.48l1.14.98Zm9.6-6 .38 1.44a17.5 17.5 0 0 1 10.42.48l.51-1.4.52-1.42a20.5 20.5 0 0 0-12.21-.56l.38 1.45v.01Zm11.31.51-.5 1.41a17.5 17.5 0 0 1 8.29 6.33l1.22-.87 1.22-.87a20.5 20.5 0 0 0-9.71-7.4l-.52 1.4Zm9.01 6.87-1.22.87a17.5 17.5 0 0 1 3.22 9.92l1.5-.02 1.5-.01a20.5 20.5 0 0 0-3.78-11.63l-1.22.87Zm3.5 10.77-1.5.02c.04 3.56-1 7.05-3 10l1.25.83 1.24.84a20.5 20.5 0 0 0 3.5-11.7l-1.5.01h.01Zm-3.25 10.85-1.25-.84a17.5 17.5 0 0 1-8.15 6.52l.55 1.4.54 1.4a20.5 20.5 0 0 0 9.55-7.64l-1.24-.84Zm-8.85 7.07-.55-1.4a17.5 17.5 0 0 1-10.4.72l-.35 1.46-.35 1.46c4.06.97 8.3.67 12.2-.84l-.55-1.4Zm-11.3.78.35-1.46a17.5 17.5 0 0 1-8.97-5.33l6.6-5.69-17.5-5.5 2.5 19 6.17-5.81a20.5 20.5 0 0 0 10.5 6.25l.35-1.46Z"/>
</svg>
