<svg xmlns="http://www.w3.org/2000/svg" width="100" height="100" fill="none" color="oklch(49.6% 0.265 301.924)"><g clip-path="url(#a)"><path fill="#fff" d="M0 0h100v100H0V0Z"/><path fill="currentColor" d="M37.15 8.65H40v2.85h-2.85V8.65Zm5.7 0h2.85v2.85h-2.85V8.65Zm5.7 0h2.85v2.85h-2.85V8.65Zm2.85 0h2.85v2.85H51.4V8.65Zm2.85 0h2.85v2.85h-2.85V8.65Zm11.4 0h2.85v2.85h-2.85V8.65Zm-34.2 2.85h2.85v2.85h-2.85V11.5Zm5.7 0H40v2.85h-2.85V11.5Zm8.55 0h2.85v2.85H45.7V11.5Zm2.85 0h2.85v2.85h-2.85V11.5Zm8.55 0h2.85v2.85H57.1V11.5Zm5.7 0h2.85v2.85H62.8V11.5Zm-19.95 2.85h2.85v2.85h-2.85v-2.85Zm2.85 0h2.85v2.85H45.7v-2.85Zm11.4 0h2.85v2.85H57.1v-2.85Zm2.85 0h2.85v2.85h-2.85v-2.85Zm2.85 0h2.85v2.85H62.8v-2.85Zm2.85 0h2.85v2.85h-2.85v-2.85Zm-34.2 2.85h2.85v2.85h-2.85V17.2Zm2.85 0h2.85v2.85H34.3V17.2Zm2.85 0H40v2.85h-2.85V17.2Zm5.7 0h2.85v2.85h-2.85V17.2Zm2.85 0h2.85v2.85H45.7V17.2Zm2.85 0h2.85v2.85h-2.85V17.2Zm2.85 0h2.85v2.85H51.4V17.2Zm2.85 0h2.85v2.85h-2.85V17.2Zm5.7 0h2.85v2.85h-2.85V17.2Zm5.7 0h2.85v2.85h-2.85V17.2ZM34.3 20.05h2.85v2.85H34.3v-2.85Zm14.25 0h2.85v2.85h-2.85v-2.85Zm5.7 0h2.85v2.85h-2.85v-2.85Zm5.7 0h2.85v2.85h-2.85v-2.85Zm2.85 0h2.85v2.85H62.8v-2.85ZM31.45 22.9h2.85v2.85h-2.85V22.9Zm2.85 0h2.85v2.85H34.3V22.9Zm5.7 0h2.85v2.85H40V22.9Zm2.85 0h2.85v2.85h-2.85V22.9Zm2.85 0h2.85v2.85H45.7V22.9Zm2.85 0h2.85v2.85h-2.85V22.9Zm8.55 0h2.85v2.85H57.1V22.9Zm8.55 0h2.85v2.85h-2.85V22.9Zm-34.2 2.85h2.85v2.85h-2.85v-2.85Zm5.7 0H40v2.85h-2.85v-2.85Zm5.7 0h2.85v2.85h-2.85v-2.85Zm5.7 0h2.85v2.85h-2.85v-2.85Zm5.7 0h2.85v2.85h-2.85v-2.85Zm5.7 0h2.85v2.85h-2.85v-2.85Zm5.7 0h2.85v2.85h-2.85v-2.85ZM34.3 28.6h2.85v2.85H34.3V28.6Zm2.85 0H40v2.85h-2.85V28.6Zm2.85 0h2.85v2.85H40V28.6Zm8.55 0h2.85v2.85h-2.85V28.6Zm5.7 0h2.85v2.85h-2.85V28.6Zm2.85 0h2.85v2.85H57.1V28.6Zm2.85 0h2.85v2.85h-2.85V28.6Zm2.85 0h2.85v2.85H62.8V28.6Zm2.85 0h2.85v2.85h-2.85V28.6Zm-57 2.85h2.85v2.85H8.65v-2.85Zm2.85 0h2.85v2.85H11.5v-2.85Zm2.85 0h2.85v2.85h-2.85v-2.85Zm2.85 0h2.85v2.85H17.2v-2.85Zm2.85 0h2.85v2.85h-2.85v-2.85Zm5.7 0h2.85v2.85h-2.85v-2.85Zm2.85 0h2.85v2.85H28.6v-2.85Zm2.85 0h2.85v2.85h-2.85v-2.85Zm2.85 0h2.85v2.85H34.3v-2.85Zm5.7 0h2.85v2.85H40v-2.85Zm5.7 0h2.85v2.85H45.7v-2.85Zm5.7 0h2.85v2.85H51.4v-2.85Zm2.85 0h2.85v2.85h-2.85v-2.85Zm11.4 0h2.85v2.85h-2.85v-2.85Zm2.85 0h2.85v2.85H68.5v-2.85Zm5.7 0h2.85v2.85H74.2v-2.85Zm5.7 0h2.85v2.85H79.9v-2.85Zm5.7 0h2.85v2.85H85.6v-2.85ZM8.65 34.3h2.85v2.85H8.65V34.3Zm19.95 0h2.85v2.85H28.6V34.3Zm2.85 0h2.85v2.85h-2.85V34.3Zm5.7 0H40v2.85h-2.85V34.3Zm5.7 0h2.85v2.85h-2.85V34.3Zm5.7 0h2.85v2.85h-2.85V34.3Zm2.85 0h2.85v2.85H51.4V34.3Zm11.4 0h2.85v2.85H62.8V34.3Zm2.85 0h2.85v2.85h-2.85V34.3Zm2.85 0h2.85v2.85H68.5V34.3Zm5.7 0h2.85v2.85H74.2V34.3Zm2.85 0h2.85v2.85h-2.85V34.3Zm2.85 0h2.85v2.85H79.9V34.3Zm5.7 0h2.85v2.85H85.6V34.3Zm-62.7 2.85h2.85V40H22.9v-2.85Zm2.85 0h2.85V40h-2.85v-2.85Zm5.7 0h2.85V40h-2.85v-2.85Zm5.7 0H40V40h-2.85v-2.85Zm8.55 0h2.85V40H45.7v-2.85Zm11.4 0h2.85V40H57.1v-2.85Zm5.7 0h2.85V40H62.8v-2.85Zm11.4 0h2.85V40H74.2v-2.85Zm5.7 0h2.85V40H79.9v-2.85Zm2.85 0h2.85V40h-2.85v-2.85ZM11.5 40h2.85v2.85H11.5V40Zm2.85 0h2.85v2.85h-2.85V40Zm2.85 0h2.85v2.85H17.2V40Zm5.7 0h2.85v2.85H22.9V40Zm5.7 0h2.85v2.85H28.6V40Zm14.25 0h2.85v2.85h-2.85V40Zm2.85 0h2.85v2.85H45.7V40Zm8.55 0h2.85v2.85h-2.85V40Zm5.7 0h2.85v2.85h-2.85V40Zm2.85 0h2.85v2.85H62.8V40Zm5.7 0h2.85v2.85H68.5V40Zm2.85 0h2.85v2.85h-2.85V40Zm2.85 0h2.85v2.85H74.2V40Zm2.85 0h2.85v2.85h-2.85V40Zm2.85 0h2.85v2.85H79.9V40Zm8.55 0h2.85v2.85h-2.85V40Zm-79.8 2.85h2.85v2.85H8.65v-2.85Zm17.1 0h2.85v2.85h-2.85v-2.85Zm5.7 0h2.85v2.85h-2.85v-2.85Zm2.85 0h2.85v2.85H34.3v-2.85Zm2.85 0H40v2.85h-2.85v-2.85Zm5.7 0h2.85v2.85h-2.85v-2.85Zm2.85 0h2.85v2.85H45.7v-2.85Zm2.85 0h2.85v2.85h-2.85v-2.85Zm2.85 0h2.85v2.85H51.4v-2.85Zm14.25 0h2.85v2.85h-2.85v-2.85Zm2.85 0h2.85v2.85H68.5v-2.85Zm2.85 0h2.85v2.85h-2.85v-2.85Zm2.85 0h2.85v2.85H74.2v-2.85Zm2.85 0h2.85v2.85h-2.85v-2.85ZM11.5 45.7h2.85v2.85H11.5V45.7Zm5.7 0h2.85v2.85H17.2V45.7Zm2.85 0h2.85v2.85h-2.85V45.7Zm2.85 0h2.85v2.85H22.9V45.7Zm5.7 0h2.85v2.85H28.6V45.7Zm19.95 0h2.85v2.85h-2.85V45.7Zm2.85 0h2.85v2.85H51.4V45.7Zm2.85 0h2.85v2.85h-2.85V45.7Zm5.7 0h2.85v2.85h-2.85V45.7Zm5.7 0h2.85v2.85h-2.85V45.7Zm2.85 0h2.85v2.85H68.5V45.7Zm11.4 0h2.85v2.85H79.9V45.7Zm5.7 0h2.85v2.85H85.6V45.7Zm-71.25 2.85h2.85v2.85h-2.85v-2.85Zm2.85 0h2.85v2.85H17.2v-2.85Zm2.85 0h2.85v2.85h-2.85v-2.85Zm2.85 0h2.85v2.85H22.9v-2.85Zm2.85 0h2.85v2.85h-2.85v-2.85Zm2.85 0h2.85v2.85H28.6v-2.85Zm2.85 0h2.85v2.85h-2.85v-2.85Zm2.85 0h2.85v2.85H34.3v-2.85Zm5.7 0h2.85v2.85H40v-2.85Zm2.85 0h2.85v2.85h-2.85v-2.85Zm2.85 0h2.85v2.85H45.7v-2.85Zm2.85 0h2.85v2.85h-2.85v-2.85Zm8.55 0h2.85v2.85H57.1v-2.85Zm2.85 0h2.85v2.85h-2.85v-2.85Zm2.85 0h2.85v2.85H62.8v-2.85Zm17.1 0h2.85v2.85H79.9v-2.85Zm2.85 0h2.85v2.85h-2.85v-2.85Zm2.85 0h2.85v2.85H85.6v-2.85Zm2.85 0h2.85v2.85h-2.85v-2.85Zm-74.1 2.85h2.85v2.85h-2.85V51.4Zm2.85 0h2.85v2.85H17.2V51.4Zm2.85 0h2.85v2.85h-2.85V51.4Zm2.85 0h2.85v2.85H22.9V51.4Zm5.7 0h2.85v2.85H28.6V51.4Zm2.85 0h2.85v2.85h-2.85V51.4Zm2.85 0h2.85v2.85H34.3V51.4Zm5.7 0h2.85v2.85H40V51.4Zm5.7 0h2.85v2.85H45.7V51.4Zm8.55 0h2.85v2.85h-2.85V51.4Zm2.85 0h2.85v2.85H57.1V51.4Zm2.85 0h2.85v2.85h-2.85V51.4Zm2.85 0h2.85v2.85H62.8V51.4Zm2.85 0h2.85v2.85h-2.85V51.4Zm5.7 0h2.85v2.85h-2.85V51.4Zm2.85 0h2.85v2.85H74.2V51.4Zm2.85 0h2.85v2.85h-2.85V51.4Zm8.55 0h2.85v2.85H85.6V51.4Zm2.85 0h2.85v2.85h-2.85V51.4ZM11.5 54.25h2.85v2.85H11.5v-2.85Zm14.25 0h2.85v2.85h-2.85v-2.85Zm2.85 0h2.85v2.85H28.6v-2.85Zm5.7 0h2.85v2.85H34.3v-2.85Zm2.85 0H40v2.85h-2.85v-2.85Zm2.85 0h2.85v2.85H40v-2.85Zm2.85 0h2.85v2.85h-2.85v-2.85Zm8.55 0h2.85v2.85H51.4v-2.85Zm2.85 0h2.85v2.85h-2.85v-2.85Zm2.85 0h2.85v2.85H57.1v-2.85Zm8.55 0h2.85v2.85h-2.85v-2.85Zm8.55 0h2.85v2.85H74.2v-2.85ZM8.65 57.1h2.85v2.85H8.65V57.1Zm5.7 0h2.85v2.85h-2.85V57.1Zm2.85 0h2.85v2.85H17.2V57.1Zm2.85 0h2.85v2.85h-2.85V57.1Zm2.85 0h2.85v2.85H22.9V57.1Zm11.4 0h2.85v2.85H34.3V57.1Zm8.55 0h2.85v2.85h-2.85V57.1Zm5.7 0h2.85v2.85h-2.85V57.1Zm5.7 0h2.85v2.85h-2.85V57.1Zm8.55 0h2.85v2.85H62.8V57.1Zm2.85 0h2.85v2.85h-2.85V57.1Zm8.55 0h2.85v2.85H74.2V57.1Zm2.85 0h2.85v2.85h-2.85V57.1Zm2.85 0h2.85v2.85H79.9V57.1Zm5.7 0h2.85v2.85H85.6V57.1ZM8.65 59.95h2.85v2.85H8.65v-2.85Zm14.25 0h2.85v2.85H22.9v-2.85Zm2.85 0h2.85v2.85h-2.85v-2.85Zm5.7 0h2.85v2.85h-2.85v-2.85Zm2.85 0h2.85v2.85H34.3v-2.85Zm8.55 0h2.85v2.85h-2.85v-2.85Zm2.85 0h2.85v2.85H45.7v-2.85Zm2.85 0h2.85v2.85h-2.85v-2.85Zm8.55 0h2.85v2.85H57.1v-2.85Zm5.7 0h2.85v2.85H62.8v-2.85Zm17.1 0h2.85v2.85H79.9v-2.85Zm2.85 0h2.85v2.85h-2.85v-2.85Zm5.7 0h2.85v2.85h-2.85v-2.85ZM8.65 62.8h2.85v2.85H8.65V62.8Zm8.55 0h2.85v2.85H17.2V62.8Zm2.85 0h2.85v2.85h-2.85V62.8Zm2.85 0h2.85v2.85H22.9V62.8Zm8.55 0h2.85v2.85h-2.85V62.8Zm2.85 0h2.85v2.85H34.3V62.8Zm8.55 0h2.85v2.85h-2.85V62.8Zm5.7 0h2.85v2.85h-2.85V62.8Zm5.7 0h2.85v2.85h-2.85V62.8Zm8.55 0h2.85v2.85H62.8V62.8Zm2.85 0h2.85v2.85h-2.85V62.8Zm2.85 0h2.85v2.85H68.5V62.8Zm2.85 0h2.85v2.85h-2.85V62.8Zm2.85 0h2.85v2.85H74.2V62.8Zm2.85 0h2.85v2.85h-2.85V62.8Zm8.55 0h2.85v2.85H85.6V62.8Zm2.85 0h2.85v2.85h-2.85V62.8Zm-79.8 2.85h2.85v2.85H8.65v-2.85Zm5.7 0h2.85v2.85h-2.85v-2.85Zm2.85 0h2.85v2.85H17.2v-2.85Zm2.85 0h2.85v2.85h-2.85v-2.85Zm5.7 0h2.85v2.85h-2.85v-2.85Zm11.4 0H40v2.85h-2.85v-2.85Zm8.55 0h2.85v2.85H45.7v-2.85Zm5.7 0h2.85v2.85H51.4v-2.85Zm8.55 0h2.85v2.85h-2.85v-2.85Zm5.7 0h2.85v2.85h-2.85v-2.85Zm2.85 0h2.85v2.85H68.5v-2.85Zm2.85 0h2.85v2.85h-2.85v-2.85Zm2.85 0h2.85v2.85H74.2v-2.85Zm2.85 0h2.85v2.85h-2.85v-2.85Zm2.85 0h2.85v2.85H79.9v-2.85Zm2.85 0h2.85v2.85h-2.85v-2.85Zm2.85 0h2.85v2.85H85.6v-2.85ZM31.45 68.5h2.85v2.85h-2.85V68.5Zm2.85 0h2.85v2.85H34.3V68.5Zm2.85 0H40v2.85h-2.85V68.5Zm2.85 0h2.85v2.85H40V68.5Zm2.85 0h2.85v2.85h-2.85V68.5Zm5.7 0h2.85v2.85h-2.85V68.5Zm5.7 0h2.85v2.85h-2.85V68.5Zm5.7 0h2.85v2.85h-2.85V68.5Zm2.85 0h2.85v2.85H62.8V68.5Zm2.85 0h2.85v2.85h-2.85V68.5Zm11.4 0h2.85v2.85h-2.85V68.5Zm8.55 0h2.85v2.85H85.6V68.5Zm-54.15 2.85h2.85v2.85h-2.85v-2.85Zm14.25 0h2.85v2.85H45.7v-2.85Zm2.85 0h2.85v2.85h-2.85v-2.85Zm2.85 0h2.85v2.85H51.4v-2.85Zm5.7 0h2.85v2.85H57.1v-2.85Zm5.7 0h2.85v2.85H62.8v-2.85Zm2.85 0h2.85v2.85h-2.85v-2.85Zm5.7 0h2.85v2.85h-2.85v-2.85Zm5.7 0h2.85v2.85h-2.85v-2.85Zm2.85 0h2.85v2.85H79.9v-2.85Zm2.85 0h2.85v2.85h-2.85v-2.85ZM34.3 74.2h2.85v2.85H34.3V74.2Zm5.7 0h2.85v2.85H40V74.2Zm8.55 0h2.85v2.85h-2.85V74.2Zm5.7 0h2.85v2.85h-2.85V74.2Zm2.85 0h2.85v2.85H57.1V74.2Zm2.85 0h2.85v2.85h-2.85V74.2Zm5.7 0h2.85v2.85h-2.85V74.2Zm11.4 0h2.85v2.85h-2.85V74.2Zm5.7 0h2.85v2.85h-2.85V74.2Zm2.85 0h2.85v2.85H85.6V74.2Zm2.85 0h2.85v2.85h-2.85V74.2Zm-57 2.85h2.85v2.85h-2.85v-2.85Zm2.85 0h2.85v2.85H34.3v-2.85Zm2.85 0H40v2.85h-2.85v-2.85Zm8.55 0h2.85v2.85H45.7v-2.85Zm5.7 0h2.85v2.85H51.4v-2.85Zm5.7 0h2.85v2.85H57.1v-2.85Zm8.55 0h2.85v2.85h-2.85v-2.85Zm2.85 0h2.85v2.85H68.5v-2.85Zm2.85 0h2.85v2.85h-2.85v-2.85Zm2.85 0h2.85v2.85H74.2v-2.85Zm2.85 0h2.85v2.85h-2.85v-2.85Zm5.7 0h2.85v2.85h-2.85v-2.85Zm2.85 0h2.85v2.85H85.6v-2.85Zm2.85 0h2.85v2.85h-2.85v-2.85Zm-57 2.85h2.85v2.85h-2.85V79.9Zm5.7 0H40v2.85h-2.85V79.9Zm11.4 0h2.85v2.85h-2.85V79.9Zm2.85 0h2.85v2.85H51.4V79.9Zm2.85 0h2.85v2.85h-2.85V79.9Zm11.4 0h2.85v2.85h-2.85V79.9Zm2.85 0h2.85v2.85H68.5V79.9Zm5.7 0h2.85v2.85H74.2V79.9Zm-42.75 2.85h2.85v2.85h-2.85v-2.85Zm11.4 0h2.85v2.85h-2.85v-2.85Zm2.85 0h2.85v2.85H45.7v-2.85Zm2.85 0h2.85v2.85h-2.85v-2.85Zm2.85 0h2.85v2.85H51.4v-2.85Zm2.85 0h2.85v2.85h-2.85v-2.85Zm2.85 0h2.85v2.85H57.1v-2.85Zm5.7 0h2.85v2.85H62.8v-2.85Zm5.7 0h2.85v2.85H68.5v-2.85Zm2.85 0h2.85v2.85h-2.85v-2.85Zm2.85 0h2.85v2.85H74.2v-2.85Zm8.55 0h2.85v2.85h-2.85v-2.85Zm2.85 0h2.85v2.85H85.6v-2.85ZM31.45 85.6h2.85v2.85h-2.85V85.6Zm2.85 0h2.85v2.85H34.3V85.6Zm2.85 0H40v2.85h-2.85V85.6Zm2.85 0h2.85v2.85H40V85.6Zm8.55 0h2.85v2.85h-2.85V85.6Zm5.7 0h2.85v2.85h-2.85V85.6Zm11.4 0h2.85v2.85h-2.85V85.6Zm2.85 0h2.85v2.85H68.5V85.6Zm11.4 0h2.85v2.85H79.9V85.6Zm2.85 0h2.85v2.85h-2.85V85.6Zm5.7 0h2.85v2.85h-2.85V85.6Zm-57 2.85h2.85v2.85h-2.85v-2.85Zm17.1 0h2.85v2.85h-2.85v-2.85Zm2.85 0h2.85v2.85H51.4v-2.85Zm5.7 0h2.85v2.85H57.1v-2.85Zm2.85 0h2.85v2.85h-2.85v-2.85Zm2.85 0h2.85v2.85H62.8v-2.85Zm2.85 0h2.85v2.85h-2.85v-2.85Zm2.85 0h2.85v2.85H68.5v-2.85Zm2.85 0h2.85v2.85h-2.85v-2.85Zm5.7 0h2.85v2.85h-2.85v-2.85Zm2.85 0h2.85v2.85H79.9v-2.85Zm2.85 0h2.85v2.85h-2.85v-2.85Z"/><g clip-path="url(#b)"><path fill="currentColor" d="M25.779 8.65h-17.1V28.6h19.95V8.65h-2.85Zm0 5.7v11.4h-14.25V11.5h14.25v2.85Z"/></g><path fill="currentColor" d="M20.05 14.35h-5.7v8.55h8.55v-8.55h-2.85Z"/><g clip-path="url(#c)"><path fill="currentColor" d="M88.478 8.65h-17.1V28.6h19.95V8.65h-2.85Zm0 5.7v11.4h-14.25V11.5h14.25v2.85Z"/></g><path fill="currentColor" d="M82.75 14.35h-5.7v8.55h8.55v-8.55h-2.85Z"/><g clip-path="url(#d)"><path fill="currentColor" d="M25.779 71.35h-17.1V91.3h19.95V71.35h-2.85Zm0 5.7v11.4h-14.25V74.2h14.25v2.85Z"/></g><path fill="currentColor" d="M20.05 77.05h-5.7v8.55h8.55v-8.55h-2.85Z"/></g><defs><clipPath id="a"><path fill="#fff" d="M0 0h100v100H0z"/></clipPath><clipPath id="b"><path fill="#fff" d="M8.65 8.65H28.6V28.6H8.65z"/></clipPath><clipPath id="c"><path fill="#fff" d="M71.35 8.65H91.3V28.6H71.35z"/></clipPath><clipPath id="d"><path fill="#fff" d="M8.65 71.35H28.6V91.3H8.65z"/></clipPath></defs></svg>